HIERARCHY
ROOT Hips
{
  OFFSET 2.26061 22.2878 23.7974
  CHANNELS 6 Xposition Yposition Zposition Zrotation Xrotation Yrotation
  JOINT LeftUpLeg
  {
    OFFSET 8.64259 1.95398 -2.38835
    CHANNELS 3 Zrotation Xrotation Yrotation
    JOINT LeftLeg
    {
      OFFSET 43.7702 0 0
      CHANNELS 3 Zrotation Xrotation Yrotation
      JOINT LeftFoot
      {
        OFFSET 40.6238 0 0
        CHANNELS 3 Zrotation Xrotation Yrotation
        JOINT LeftToeBase
        {
          OFFSET 12.7242 0 0
          CHANNELS 3 Zrotation Xrotation Yrotation
          End Site
          {
            OFFSET 0 0 0
          }
        }
      }
    }
  }
  JOINT RightUpLeg
  {
    OFFSET -8.2249 1.95398 -2.59336
    CHANNELS 3 Zrotation Xrotation Yrotation
    JOINT RightLeg
    {
      OFFSET 43.5653 0 0
      CHANNELS 3 Zrotation Xrotation Yrotation
      JOINT RightFoot
      {
        OFFSET 40.6238 0 0
        CHANNELS 3 Zrotation Xrotation Yrotation
        JOINT RightToeBase
        {
          OFFSET 12.7242 0 0
          CHANNELS 3 Zrotation Xrotation Yrotation
          End Site
          {
            OFFSET 0 0 0
          }
        }
      }
    }
  }
  JOINT Spine
  {
    OFFSET 0.165834 0.87714 6.61349
    CHANNELS 3 Zrotation Xrotation Yrotation
    JOINT Spine1
    {
      OFFSET 7.38963 1.71661e-005 0
      CHANNELS 3 Zrotation Xrotation Yrotation
      JOINT Spine2
      {
        OFFSET 11.9445 1.14441e-005 0
        CHANNELS 3 Zrotation Xrotation Yrotation
        JOINT Spine3
        {
          OFFSET 14.7254 4.19617e-005 0
          CHANNELS 3 Zrotation Xrotation Yrotation
          JOINT Spine4
          {
            OFFSET 10.9679 0 0
            CHANNELS 3 Zrotation Xrotation Yrotation
            JOINT RightShoulder
            {
              OFFSET 2.46616 -1.6653 3.69651
              CHANNELS 3 Zrotation Xrotation Yrotation
              JOINT RightArm
              {
                OFFSET 13.0012 0 0
                CHANNELS 3 Zrotation Xrotation Yrotation
                JOINT RightForeArm
                {
                  OFFSET 28.7848 1.52588e-005 0
                  CHANNELS 3 Zrotation Xrotation Yrotation
                  JOINT RightHand
                  {
                    OFFSET 26.5688 1.52588e-005 0
                    CHANNELS 3 Zrotation Xrotation Yrotation
                    End Site
                    {
                      OFFSET 0 0 0
                    }
                  }
                }
              }
            }
            JOINT LeftShoulder
            {
              OFFSET 2.38034 -1.29275 -3.7523
              CHANNELS 3 Zrotation Xrotation Yrotation
              JOINT LeftArm
              {
                OFFSET 16.3182 6.10351e-005 0
                CHANNELS 3 Zrotation Xrotation Yrotation
                JOINT LeftForeArm
                {
                  OFFSET 27.0901 0 0
                  CHANNELS 3 Zrotation Xrotation Yrotation
                  JOINT LeftHand
                  {
                    OFFSET 24.5451 1.52588e-005 0
                    CHANNELS 3 Zrotation Xrotation Yrotation
                    End Site
                    {
                      OFFSET 0 0 0
                    }
                  }
                }
              }
            }
            JOINT Neck
            {
              OFFSET 5.0226 -0.0266342 0
              CHANNELS 3 Zrotation Xrotation Yrotation
              JOINT Head
              {
                OFFSET 6.69363 2.86102e-005 0
                CHANNELS 3 Zrotation Xrotation Yrotation
                End Site
                {
                  OFFSET 0 0 0
                }
              }
            }
          }
        }
      }
    }
  }
}
MOTION
Frames:	14
Frame Time:	0.0416667
-47.8422 93.0699 -74.2608 92.5528 -39.4468 88.4972 -169.842 22.9164 86.9223 -49.8119 19.8953 -3.27157 59.5839 1.34403 0.926303 41.653 10.6148 6.32758 176.013 35.5448 89.0026 -50.4504 9.81077 -1.24546 60.2895 -1.96932 -1.10836 36.7574 0.352589 -7.88805 -0.335238 8.22176 -89.2994 10.4309 -0.346534 1.42274 -1.24084 -0.283588 1.43661 -23.7713 -0.758097 1.25286 -3.75867 -0.75808 1.25286 93.5457 -51.9238 -95.0542 24.5683 -17.2632 26.6736 -8.83854 -15.8447 -66.4918 -19.072 -0.396491 -2.56806 -97.1047 -50.9017 68.5082 -11.5449 0.037798 15.8148 14.0567 -0.463839 -90.3656 39.734 2.94077 3.49563 -3.55837 -2.29443 -0.9719 14.6754 -2.26993 -0.51908 
-44.414 93.9782 -70.777 92.1462 -38.0983 88.1819 -170.236 21.5399 88.6664 -50.0564 24.9257 -2.95206 55 -2.55452 -1.47511 44.011 12.6101 5.92188 176.448 33.3513 88.0395 -31.869 5.24462 -1.56888 49.8903 1.75493 1.6687 31.0345 0.510364 -8.908 -0.501519 8.12902 -89.3749 10.6184 -0.711172 1.30693 -1.05304 -0.652987 1.33695 -23.5862 -1.07106 1.0328 -3.57352 -1.07107 1.0328 93.9553 -52.0515 -94.4164 25.1785 -15.8386 30.1854 -5.9769 -13.3396 -65.8768 -18.2329 -0.407523 -2.53156 -96.7233 -49.7277 68.6871 -12.7115 0.428689 15.055 14.0655 -2.09116 -93.2377 39.2913 2.35324 2.04668 -6.65159 -2.72321 -1.24478 16.4984 -2.68433 -0.321234 
-40.8804 94.5657 -67.1526 93.4624 -36.155 88.7549 -170.938 18.5452 90.4651 -50.2358 29.7019 -2.16056 52.0867 -4.84919 -3.11403 44.1081 12.3258 2.89945 176.037 29.0944 87.2082 -15.0002 -0.954814 -2.13678 43.4555 4.07552 3.94584 25.272 0.549247 -7.6286 -0.714953 8.15429 -89.4171 10.5707 -1.15585 1.26264 -1.10041 -1.09918 1.31228 -23.6371 -1.48186 0.856888 -3.62445 -1.48189 0.856869 94.6336 -51.6005 -93.4571 26.3421 -14.4629 33.5228 -6.1541 -11.9151 -66.3696 -16.5394 -0.317821 -3.02479 -96.6298 -48.7381 68.504 -13.2529 1.51415 15.0047 15.0146 -3.44541 -96.9412 37.9236 2.45567 2.56025 -8.82989 -3.25707 -2.0611 17.5339 -3.08345 0.368564 
-37.1456 94.7031 -63.2358 93.6632 -34.2154 89.0378 -171.464 16.2657 92.6133 -50.5333 35.9023 -1.31451 48.5927 -7.49811 -4.39159 46.2839 13.9425 1.82836 175.281 27.2251 86.8246 -5.80324 -1.02818 -1.73875 40.7988 5.15556 5.18954 22.7656 0.288824 -5.02704 -0.893573 8.06884 -89.4846 10.7437 -1.54178 1.16698 -0.926906 -1.48893 1.2337 -23.4678 -1.82121 0.649584 -3.45512 -1.82121 0.649577 95.2967 -50.3387 -92.6164 28.3069 -12.6847 36.701 -6.21465 -11.4887 -66.2976 -15.3979 -0.138772 -4.23841 -96.1009 -47.6093 68.9251 -13.6102 3.02166 14.7891 15.68 -4.94065 -100.404 35.7753 2.14919 2.10214 -10.0895 -3.92761 -2.69318 18.2706 -3.6742 0.78446 
-33.5717 94.2857 -59.4125 94.8136 -31.6726 89.1942 -172.521 13.999 93.8895 -52.735 39.2314 0.170054 46.345 -9.03823 -6.06121 45.8335 13.4237 0.696434 174.89 27.0571 85.723 -6.13848 2.21836 -1.69287 39.8673 5.34722 5.46275 17.4104 0.301247 -5.21528 -1.16111 8.03994 -89.4283 10.8058 -2.04812 1.32727 -0.864251 -1.9877 1.41613 -23.4106 -2.35229 0.650144 -3.39795 -2.35227 0.650137 95.875 -48.7864 -91.9182 30.5788 -10.7024 39.8024 -8.28252 -11.1691 -67.0726 -13.3682 -0.176236 -4.00923 -94.8229 -45.9608 70.3412 -14.333 5.45331 14.5458 15.329 -6.51814 -103.896 34.4115 1.53195 0.508268 -10.1757 -4.48698 -4.38812 17.7554 -4.0011 1.78806 
-30.2102 92.9806 -55.7478 96.7073 -29.6292 89.326 -173.941 12.1108 94.5408 -57.1249 41.6491 1.77761 43.938 -10.6045 -7.49291 46.9221 14.3572 1.21856 174.494 27.8159 84.6955 -13.249 1.92025 -1.61765 38.8928 5.48854 5.7001 13.6924 0.806162 -7.92341 -1.37702 8.01139 -89.3276 10.8678 -2.43091 1.56533 -0.80197 -2.35969 1.67081 -23.353 -2.78892 0.761977 -3.34034 -2.78891 0.761977 95.751 -47.5282 -92.2786 32.0103 -8.54704 42.8353 -9.8022 -10.8075 -67.0049 -10.5582 -0.0795213 -5.13986 -94.3925 -45.3925 70.8265 -14.1787 7.64222 15.0302 15.3498 -8.29244 -107.139 32.3518 0.989239 -0.917314 -10.836 -5.04704 -4.78653 17.2074 -4.58644 1.80238 
-27.0768 90.9995 -52.3514 98.5351 -28.0973 88.7771 -175.773 11.2668 94.1898 -63.0582 40.7833 3.02858 42.7083 -11.1365 -9.30599 45.2868 13.4595 4.15914 172.916 29.5583 83.5553 -25.0574 1.46854 -0.365356 44.8867 4.01326 3.89227 19.0175 -0.375779 -0.931484 -1.47165 7.9705 -89.1712 10.9527 -2.54621 1.89066 -0.717277 -2.46055 2.00089 -23.2682 -2.99663 1.03763 -3.25557 -2.99663 1.03763 96.1597 -47.9952 -91.5671 31.3413 -7.46751 44.7314 -10.006 -10.6042 -66.2106 -9.00024 -0.0578429 -5.64853 -94.5287 -45.7404 70.7244 -13.3166 10.2368 15.2697 15.6044 -9.58355 -109 31.7336 1.23885 -0.0382489 -11.1263 -6.01513 -4.85838 15.9871 -5.60641 1.6845 
-23.8574 89.0503 -49.2746 100.287 -27.557 90.703 -177.307 11.575 95.617 -70.4806 37.9764 4.12201 43.584 -10.4467 -6.98974 43.3276 12.4722 9.79508 172.513 30.537 85.1908 -37.4676 1.05918 0.159166 59.4086 -0.124232 0.0591657 20.4854 -0.14929 -1.97238 -1.40354 8.00586 -89.3931 10.88 -2.51391 1.44404 -0.789433 -2.44796 1.55331 -23.3425 -2.83162 0.62128 -3.32989 -2.83162 0.62128 95.8862 -48.2899 -91.9632 29.9384 -7.21835 44.6456 -9.68746 -11.0196 -64.076 -9.12703 -0.112175 -4.99562 -94.8677 -46.946 70.5814 -13.4805 11.3502 14.8718 16.2335 -9.86194 -107.992 29.787 1.18099 0.0355744 -10.588 -7.27413 -2.35361 14.622 -7.22962 -0.237903 
-20.8736 87.6497 -46.6471 100.88 -28.2263 93.824 -178.151 14.084 98.1142 -77.2179 27.2976 4.33987 47.5343 -6.87653 -3.4981 40.1654 9.65591 11.2569 173.55 31.9223 88.7535 -46.5476 3.42492 -0.0683206 62.9893 -1.88778 -1.03813 26.371 0.0287676 -1.69009 -1.13013 8.13086 -89.8527 10.619 -2.1826 0.489504 -1.05019 -2.15894 0.585137 -23.6001 -2.22876 -0.189419 -3.58747 -2.22876 -0.189414 96.2149 -50.3521 -91.2006 25.7761 -8.28691 39.3245 -9.0568 -13.5966 -59.8015 -10.3526 -0.22958 -3.67446 -96.1185 -49.9117 69.6308 -13.1618 11.1875 12.9726 17.1089 -8.45281 -103.613 29.5442 1.63409 1.65636 -6.98336 -8.55179 -0.107453 11.4761 -8.68359 -1.4323 
-18.4333 86.7976 -44.9589 101.074 -28.4783 94.6342 -178.661 18.0263 97.5023 -81.7205 17.5613 3.95232 50.7443 -3.60519 0.496272 38.7802 8.33074 11.0248 173.917 32.9546 89.8265 -52.4509 4.14465 -0.269348 64.7165 -3.20096 -1.79813 30.4097 0.187412 -2.11019 -0.978344 8.28062 -90.095 10.3137 -1.99259 -0.0163562 -1.35574 -1.99138 0.071382 -23.9023 -1.89551 -0.614677 -3.88966 -1.8955 -0.614676 96.1307 -51.9727 -91.1408 20.9243 -8.77886 29.7816 -6.51169 -17.9698 -52.1384 -10.8294 -0.494167 -1.11039 -99.1681 -52.6715 66.1399 -13.5427 8.40818 12.5032 20.3433 -5.77446 -96.2332 27.5452 1.94718 3.24623 -4.25254 -9.58104 1.83572 9.65804 -9.95825 -2.72854 
-16.6036 86.4295 -43.3201 102.292 -29.377 94.3206 -177.096 21.0175 95.4122 -83.2953 10.2661 3.25628 53.0673 -1.06579 2.7678 39.0566 8.60037 11.2118 173.925 31.6721 89.599 -55.2357 4.066 -0.680262 69.0708 -4.86741 -2.58863 30.0193 0.171081 -2.03489 -0.877215 8.34901 -90.0584 10.177 -1.7745 0.0342872 -1.49271 -1.77129 0.112376 -24.037 -1.70276 -0.50077 -4.02439 -1.70274 -0.500769 95.2528 -51.4319 -92.5396 19.3323 -7.82176 22.0325 -5.15185 -21.9417 -45.2927 -7.99982 -0.658377 1.3806 -100.072 -53.3155 65.0897 -16.1829 6.80177 13.1099 20.6479 -2.20921 -87.6674 28.9683 2.28818 4.09576 -6.07311 -10.1515 3.65494 10.8863 -10.9052 -4.71958 
-14.9199 86.4263 -41.5542 101.944 -30.2357 93.8805 -175.066 24.6232 94.2794 -82.3148 5.92159 2.66848 54.7901 0.463133 4.42152 40.8731 10.3178 11.1291 174.134 31.235 90.1706 -56.8401 4.91456 -0.921592 71.1519 -5.71767 -2.92965 30.9421 0.19365 -1.89486 -0.703818 8.26657 -90.07 10.3412 -1.43423 -0.0142655 -1.32894 -1.43346 0.0488717 -23.8701 -1.36363 -0.444728 -3.85742 -1.36362 -0.444739 95.6972 -52.3444 -91.7513 17.8473 -6.07804 16.4752 -6.83888 -23.7169 -44.3212 -4.10407 -0.659739 3.86976 -99.93 -53.499 65.3522 -18.6518 7.12685 13.3943 16.8207 2.32115 -77.751 29.8559 2.64529 5.09527 -7.14 -10.8246 3.89306 11.0909 -11.5248 -4.35784 
-13.281 86.6275 -40.1066 101.082 -31.9382 92.9489 -172.21 27.8241 92.8326 -79.4382 2.68657 1.70437 56.6368 1.55427 4.05072 42.5914 12.0898 12.5003 175.254 31.4985 90.3739 -58.0915 5.08439 -1.6241 71.537 -6.24361 -3.17626 32.6313 0.253998 -1.98612 -0.390848 8.18732 -90.0524 10.4994 -0.802553 -0.0327866 -1.17131 -0.803211 0.00255139 -23.7082 -0.755581 -0.272485 -3.69553 -0.755598 -0.272498 95.6277 -52.3848 -91.8512 18.3047 -4.87274 13.4388 -9.2321 -22.6881 -46.9227 -2.6802 -0.596526 4.11293 -99.6529 -53.3631 65.6933 -20.4462 7.97628 13.5389 12.9782 3.19668 -68.8621 26.9557 2.09261 3.92581 -6.6582 -11.4831 4.306 10.5976 -12.2019 -4.4188 
-11.6915 86.9242 -38.8516 101.048 -33.047 92.3771 -170.016 29.5449 91.6869 -75.2934 2.69846 0.597547 58.7078 2.48405 4.33804 43.142 12.6838 13.0157 175.865 30.5081 90.2509 -58.5678 4.8781 -2.08527 72.8115 -6.97528 -3.47179 32.9894 0.314574 -3.77557 -0.160252 8.20799 -90.0413 10.4578 -0.338265 -0.0521622 -1.21306 -0.340237 -0.0372385 -23.7485 -0.306958 -0.151417 -3.73587 -0.306954 -0.15142 94.964 -51.8824 -92.9174 18.844 -5.02977 11.7142 -10.0255 -20.6635 -50.1901 -5.59042 -0.649975 2.49504 -99.4206 -53.1191 65.9362 -21.659 9.19859 13.4528 13.5465 6.55175 -60.6571 23.5937 2.09753 5.09974 -6.34979 -11.9917 5.08864 11.1272 -12.8532 -5.00464 
